<svg version="1.1" xmlns="http://www.w3.org/2000/svg" xmlns:xlink="http://www.w3.org/1999/xlink" width="586" height="383" viewBox="0,0,586,383"><g transform="translate(49.39998,10.1)"><g data-paper-data="{&quot;isPaintingLayer&quot;:true}" fill-rule="nonzero" stroke-linejoin="miter" stroke-miterlimit="10" stroke-dasharray="" stroke-dashoffset="0" style="mix-blend-mode: normal"><path d="M-48.39998,371.90001v-381h584v381z" fill="#ffffff" stroke="#000000" stroke-width="2" stroke-linecap="butt"/><path d="M378.09081,320.68561c0.2144,2.49079 -2.2764,2.70518 -2.2764,2.70518l-4.03751,0.34555c-8.22002,1.37339 -15.85785,1.52943 -24.16442,1.74811c-6.71965,0.1769 -13.25982,0.91555 -20.01245,0.91555c-15.93174,0 -31.99892,-0.59166 -47.91556,0.16671c-7.67183,0.36554 -15.31083,1.53658 -22.9885,1.83144c-9.99812,0.38398 -20.08946,0.00185 -30.09594,0.00185c-32.66666,0 -65.33334,0 -98,0c-17.08535,0 -34.01092,-1.46405 -51.07278,-2.00106c-4.74237,-0.14926 -9.65391,0.42334 -14.37116,-0.05028c-3.31553,-0.33288 -6.48675,-1.62919 -9.8024,-1.96082c-1.76729,-0.17676 -3.5964,0.34028 -5.32803,-0.05471c-1.64019,-0.37414 -3.02911,-1.46471 -4.54366,-2.19706c0,0 -2.23606,-1.11803 -1.11803,-3.3541c1.11803,-2.23607 3.3541,-1.11804 3.3541,-1.11804c1.15212,0.60098 2.18596,1.52971 3.45635,1.80294c1.52261,0.32748 3.12196,-0.20661 4.67196,-0.05471c3.31857,0.32522 6.49142,1.62839 9.80921,1.9615c4.59505,0.46135 9.39632,-0.11773 14.01723,0.0274c17.01323,0.53434 33.89098,1.99894 50.92722,1.99894c32.66666,0 65.33334,0 98,0c9.94233,0 19.97015,0.38335 29.90406,0.00184c7.6619,-0.29426 15.28596,-1.46466 22.94241,-1.82947c15.99628,-0.76217 32.14215,-0.17237 48.15353,-0.17237c6.71076,0 13.197,-0.73145 19.87842,-0.91375c8.15753,-0.22258 15.60332,-0.3689 23.67257,-1.71058l4.2346,-0.36647c0,0 2.49079,-0.21439 2.70519,2.2764z" fill="#ffffff" stroke="none" stroke-width="0.5" stroke-linecap="butt"/><path d="M25.60002,343.90001h413" fill="none" stroke="#000000" stroke-width="2" stroke-linecap="round"/></g></g></svg>